<svg width="21" height="15" viewBox="0 0 21 15" fill="none" xmlns="http://www.w3.org/2000/svg">
<path id="Vector" d="M14.2563 0.883667C14.1131 0.740438 13.9438 0.668823 13.7485 0.668823C13.5532 0.668823 13.384 0.740438 13.2407 0.883667C13.0975 1.01388 13.0259 1.17664 13.0259 1.37195C13.0259 1.56726 13.0975 1.73653 13.2407 1.87976L18.3579 6.99695H1.48291C1.2876 6.99695 1.12158 7.06531 0.984863 7.20203C0.848145 7.33875 0.779785 7.50476 0.779785 7.70007C0.779785 7.89539 0.848145 8.0614 0.984863 8.19812C1.12158 8.33484 1.2876 8.4032 1.48291 8.4032H18.3579L13.2407 13.5204C13.0975 13.6506 13.0259 13.8166 13.0259 14.0184C13.0259 14.2203 13.0975 14.3863 13.2407 14.5165C13.384 14.6597 13.5532 14.7313 13.7485 14.7313C13.9438 14.7313 14.1131 14.6597 14.2563 14.5165L20.5649 8.20789C20.7082 8.06466 20.7798 7.89539 20.7798 7.70007C20.7798 7.50476 20.7082 7.33549 20.5649 7.19226L14.2563 0.883667Z" fill="black"/>
</svg>
