<svg width="15" height="12" viewBox="0 0 15 12" fill="none" xmlns="http://www.w3.org/2000/svg">
<path id="Vector" d="M14.6777 1.11584L13.8867 0.324829C13.7695 0.207642 13.6353 0.149048 13.4839 0.149048C13.3325 0.149048 13.1982 0.207642 13.0811 0.324829H13.0225L5.37598 8.24963C5.31738 8.30823 5.24902 8.33752 5.1709 8.33752C5.09277 8.33752 5.02441 8.30823 4.96582 8.24963L1.83105 4.88049L1.77246 4.8219C1.65527 4.71448 1.521 4.66077 1.36963 4.66077C1.21826 4.66077 1.08887 4.71448 0.981445 4.8219L0.175781 5.62756C0.117188 5.68616 0.0732422 5.75208 0.0439453 5.82532C0.0146484 5.89856 0 5.96448 0 6.02307C0 6.08167 0.0146484 6.15002 0.0439453 6.22815C0.0732422 6.30627 0.117188 6.37463 0.175781 6.43323L0.292969 6.59436L4.74609 11.399C4.80469 11.4576 4.86572 11.5016 4.9292 11.5309C4.99268 11.5602 5.06348 11.5748 5.1416 11.5748C5.22949 11.5748 5.30518 11.5602 5.36865 11.5309C5.43213 11.5016 5.49316 11.4576 5.55176 11.399L14.6777 1.92151C14.7949 1.80432 14.8535 1.67004 14.8535 1.51868C14.8535 1.36731 14.7949 1.23303 14.6777 1.11584Z" fill="#FB6A00"/>
</svg>
