<svg width="28" height="36" viewBox="0 0 28 36" fill="none" xmlns="http://www.w3.org/2000/svg">
<path id="Vector" d="M7.5142 25.0193C6.92016 24.4252 7.22982 24.5927 5.79701 24.2092C5.14691 24.0349 4.57543 23.6999 4.05863 23.2987L0.957166 30.903C0.657069 31.6392 1.21762 32.439 2.01195 32.4089L5.61381 32.2715L8.09115 34.8883C8.63803 35.4653 9.59779 35.2855 9.89789 34.5492L13.456 25.8252C12.715 26.2381 11.8926 26.4801 11.0422 26.4801C9.70922 26.4801 8.45687 25.9613 7.5142 25.0193ZM27.0431 30.903L23.9416 23.2987C23.4248 23.7006 22.8534 24.0349 22.2033 24.2092C20.7629 24.5948 21.0787 24.4266 20.4861 25.0193C19.5434 25.9613 18.2904 26.4801 16.9574 26.4801C16.107 26.4801 15.2846 26.2374 14.5436 25.8252L18.1017 34.5492C18.4018 35.2855 19.3622 35.4653 19.9084 34.8883L22.3865 32.2715L25.9883 32.4089C26.7827 32.439 27.3432 31.6385 27.0431 30.903ZM18.8537 23.4723C19.8982 22.4093 20.0178 22.5009 21.5053 22.0955C22.4548 21.8365 23.1972 21.0811 23.4515 20.1145C23.9628 18.1731 23.8302 18.4075 25.2254 16.987C25.9206 16.2795 26.192 15.248 25.9377 14.2814C25.4271 12.3413 25.4264 12.612 25.9377 10.6699C26.192 9.70335 25.9206 8.6718 25.2254 7.96428C23.8302 6.54378 23.9628 6.77757 23.4515 4.83684C23.1972 3.87024 22.4548 3.11487 21.5053 2.85579C19.5995 2.33557 19.8291 2.47161 18.4326 1.05042C17.7373 0.342897 16.7236 0.0660419 15.7741 0.325124C13.8689 0.844655 14.1348 0.845339 12.2262 0.325124C11.2767 0.0660419 10.2629 0.342214 9.56771 1.05042C8.1725 2.47092 8.40219 2.33557 6.49564 2.85579C5.54613 3.11487 4.80375 3.87024 4.54945 4.83684C4.03881 6.77757 4.17074 6.54378 2.77553 7.96428C2.08031 8.6718 1.80824 9.70335 2.06322 10.6699C2.57387 12.6086 2.57455 12.3379 2.06322 14.2807C1.80892 15.2473 2.08031 16.2788 2.77553 16.987C4.17074 18.4075 4.03812 18.1731 4.54945 20.1145C4.80375 21.0811 5.54613 21.8365 6.49564 22.0955C8.02553 22.5125 8.13969 22.4469 9.14662 23.4723C10.051 24.3931 11.4599 24.5578 12.5468 23.8701C12.9815 23.5942 13.4856 23.4477 14.0005 23.4477C14.5153 23.4477 15.0195 23.5942 15.4541 23.8701C16.5404 24.5578 17.9493 24.3931 18.8537 23.4723ZM7.55111 12.2586C7.55111 8.63352 10.4386 5.69475 14.0001 5.69475C17.5617 5.69475 20.4492 8.63352 20.4492 12.2586C20.4492 15.8837 17.5617 18.8225 14.0001 18.8225C10.4386 18.8225 7.55111 15.8837 7.55111 12.2586Z" fill="#454545"/>
</svg>
