<svg width="36" height="29" viewBox="0 0 36 29" fill="none" xmlns="http://www.w3.org/2000/svg">
<path id="Vector" d="M28.5055 11.1754L28.0571 11.9575C27.893 12.2473 27.543 12.3676 27.2313 12.2528C26.586 12.0122 25.9953 11.6676 25.4758 11.2356C25.2242 11.0278 25.1586 10.6614 25.3227 10.377L25.7711 9.59496C25.3938 9.15746 25.0985 8.64887 24.9016 8.09653H23.9992C23.6711 8.09653 23.3867 7.86137 23.3321 7.53325C23.2227 6.877 23.2172 6.18793 23.3321 5.50434C23.3867 5.17622 23.6711 4.93559 23.9992 4.93559H24.9016C25.0985 4.38325 25.3938 3.87465 25.7711 3.43715L25.3227 2.65512C25.1586 2.37075 25.2188 2.00434 25.4758 1.79653C25.9953 1.3645 26.5914 1.01996 27.2313 0.77934C27.543 0.664496 27.893 0.784809 28.0571 1.07465L28.5055 1.85668C29.0797 1.75278 29.6649 1.75278 30.2391 1.85668L30.6875 1.07465C30.8516 0.784809 31.2016 0.664496 31.5133 0.77934C32.1586 1.01996 32.7492 1.3645 33.2688 1.79653C33.5203 2.00434 33.586 2.37075 33.4219 2.65512L32.9735 3.43715C33.3508 3.87465 33.6461 4.38325 33.843 4.93559H34.7453C35.0735 4.93559 35.3578 5.17075 35.4125 5.49887C35.5219 6.15512 35.5274 6.84418 35.4125 7.52778C35.3578 7.8559 35.0735 8.09653 34.7453 8.09653H33.843C33.6461 8.64887 33.3508 9.15746 32.9735 9.59496L33.4219 10.377C33.586 10.6614 33.5258 11.0278 33.2688 11.2356C32.7492 11.6676 32.1531 12.0122 31.5133 12.2528C31.2016 12.3676 30.8516 12.2473 30.6875 11.9575L30.2391 11.1754C29.6703 11.2793 29.0797 11.2793 28.5055 11.1754ZM27.9313 7.95981C30.0367 9.57856 32.4375 7.17778 30.8188 5.07231C28.7133 3.44809 26.3125 5.85434 27.9313 7.95981ZM21.6258 16.3762L23.4688 17.295C24.0211 17.6122 24.2617 18.2848 24.043 18.8864C23.5563 20.2098 22.5992 21.4239 21.7133 22.4848C21.3086 22.9715 20.6086 23.0918 20.0563 22.7747L18.4649 21.8559C17.5899 22.6051 16.5727 23.2012 15.4625 23.5895V25.427C15.4625 26.0614 15.0086 26.6082 14.3852 26.7176C13.0399 26.9473 11.6289 26.9582 10.2344 26.7176C9.60549 26.6082 9.14065 26.0668 9.14065 25.427V23.5895C8.03049 23.1957 7.01331 22.6051 6.13831 21.8559L4.5469 22.7692C4.00003 23.0864 3.29456 22.9661 2.88987 22.4793C2.00393 21.4184 1.06878 20.2043 0.582056 18.8864C0.363306 18.2903 0.603931 17.6176 1.15628 17.295L2.97737 16.3762C2.76409 15.2332 2.76409 14.0575 2.97737 12.909L1.15628 11.9848C0.603931 11.6676 0.357838 10.995 0.582056 10.3989C1.06878 9.07543 2.00393 7.86137 2.88987 6.80043C3.29456 6.31371 3.99456 6.1934 4.5469 6.51059L6.13831 7.42934C7.01331 6.68012 8.03049 6.08403 9.14065 5.69575V3.85278C9.14065 3.22387 9.58909 2.677 10.2125 2.56762C11.5578 2.33793 12.9742 2.327 14.3688 2.56215C14.9977 2.67153 15.4625 3.21293 15.4625 3.85278V5.69028C16.5727 6.08403 17.5899 6.67465 18.4649 7.42387L20.0563 6.50512C20.6032 6.18793 21.3086 6.30825 21.7133 6.79497C22.5992 7.8559 23.5289 9.06996 24.0157 10.3934C24.2344 10.9895 24.0211 11.6622 23.4688 11.9848L21.6258 12.9036C21.8391 14.052 21.8391 15.2278 21.6258 16.3762ZM15.1946 17.5301C18.4321 13.3192 13.625 8.51215 9.41409 11.7497C6.17659 15.9606 10.9836 20.7676 15.1946 17.5301ZM28.5055 27.5215L28.0571 28.3036C27.893 28.5934 27.543 28.7137 27.2313 28.5989C26.586 28.3582 25.9953 28.0137 25.4758 27.5817C25.2242 27.3739 25.1586 27.0075 25.3227 26.7231L25.7711 25.9411C25.3938 25.5036 25.0985 24.995 24.9016 24.4426H23.9992C23.6711 24.4426 23.3867 24.2075 23.3321 23.8793C23.2227 23.2231 23.2172 22.534 23.3321 21.8504C23.3867 21.5223 23.6711 21.2817 23.9992 21.2817H24.9016C25.0985 20.7293 25.3938 20.2207 25.7711 19.7832L25.3227 19.0012C25.1586 18.7168 25.2188 18.3504 25.4758 18.1426C25.9953 17.7106 26.5914 17.3661 27.2313 17.1254C27.543 17.0106 27.893 17.1309 28.0571 17.4207L28.5055 18.2028C29.0797 18.0989 29.6649 18.0989 30.2391 18.2028L30.6875 17.4207C30.8516 17.1309 31.2016 17.0106 31.5133 17.1254C32.1586 17.3661 32.7492 17.7106 33.2688 18.1426C33.5203 18.3504 33.586 18.7168 33.4219 19.0012L32.9735 19.7832C33.3508 20.2207 33.6461 20.7293 33.843 21.2817H34.7453C35.0735 21.2817 35.3578 21.5168 35.4125 21.845C35.5219 22.5012 35.5274 23.1903 35.4125 23.8739C35.3578 24.202 35.0735 24.4426 34.7453 24.4426H33.843C33.6461 24.995 33.3508 25.5036 32.9735 25.9411L33.4219 26.7231C33.586 27.0075 33.5258 27.3739 33.2688 27.5817C32.7492 28.0137 32.1531 28.3582 31.5133 28.5989C31.2016 28.7137 30.8516 28.5934 30.6875 28.3036L30.2391 27.5215C29.6703 27.6254 29.0797 27.6254 28.5055 27.5215ZM27.9313 24.3004C30.0367 25.9192 32.4375 23.5184 30.8188 21.4129C28.7133 19.7942 26.3125 22.195 27.9313 24.3004Z" fill="#454545"/>
</svg>
