<svg width="36" height="36" viewBox="0 0 36 36" fill="none" xmlns="http://www.w3.org/2000/svg">
<path id="Vector" d="M7.98247 16.9125L17.1823 7.7141L14.1663 4.69808L9.94986 8.91449C9.89958 8.96487 9.83985 9.00484 9.77411 9.03211C9.70836 9.05938 9.63788 9.07341 9.5667 9.07341C9.49553 9.07341 9.42505 9.05938 9.3593 9.03211C9.29355 9.00484 9.23383 8.96487 9.18355 8.91449L8.41724 8.14818C8.20533 7.93627 8.20533 7.5931 8.41724 7.38187L12.6336 3.16547L10.334 0.865173C9.48707 0.0182006 8.11441 0.0182006 7.26744 0.865173L1.13492 6.99769C0.288627 7.84467 0.287943 9.21732 1.13492 10.0643L7.98247 16.9125ZM34.538 8.92816C35.8205 7.64574 35.8198 5.56693 34.538 4.28451L31.4448 1.19125C30.1624 -0.0911744 28.0829 -0.0911744 26.7998 1.19125L23.6539 4.33646L31.3921 12.0747L34.538 8.92816ZM22.1069 5.88412L1.80415 26.1841L0.521733 33.5286C0.348783 34.5192 1.21148 35.3819 2.20269 35.2076L9.5479 33.9197L29.8452 13.6217L22.1069 5.88412ZM34.8648 25.3959L32.5652 23.0963L28.3488 27.3127C28.1369 27.5246 27.7937 27.5246 27.5825 27.3127L26.8162 26.5464C26.6049 26.3345 26.6049 25.9913 26.8162 25.7801L31.0326 21.5637L28.0152 18.5463L18.8154 27.7448L25.6657 34.5944C26.5127 35.4413 27.8853 35.4413 28.7323 34.5944L34.8648 28.4625C35.7118 27.6156 35.7118 26.2429 34.8648 25.3959Z" fill="#454545"/>
</svg>
