<svg width="16" height="12" viewBox="0 0 16 12" fill="none" xmlns="http://www.w3.org/2000/svg">
<path id="Vector" d="M10.7812 0.171875C10.6667 0.057292 10.5312 0 10.375 0C10.2188 0 10.0833 0.057292 9.96875 0.171875C9.85417 0.276042 9.79688 0.40625 9.79688 0.5625C9.79688 0.71875 9.85417 0.854167 9.96875 0.96875L14.0625 5.0625H0.5625C0.40625 5.0625 0.273438 5.11719 0.164062 5.22656C0.0546875 5.33594 0 5.46875 0 5.625C0 5.78125 0.0546875 5.91406 0.164062 6.02344C0.273438 6.13281 0.40625 6.1875 0.5625 6.1875H14.0625L9.96875 10.2812C9.85417 10.3854 9.79688 10.5182 9.79688 10.6797C9.79688 10.8411 9.85417 10.974 9.96875 11.0781C10.0833 11.1927 10.2188 11.25 10.375 11.25C10.5312 11.25 10.6667 11.1927 10.7812 11.0781L15.8281 6.03125C15.9427 5.91667 16 5.78125 16 5.625C16 5.46875 15.9427 5.33333 15.8281 5.21875L10.7812 0.171875Z" fill="#FF6C00"/>
</svg>
